<svg xmlns="http://www.w3.org/2000/svg" version="1.1" xmlns:xlink="http://www.w3.org/1999/xlink" xmlns:svgjs="http://svgjs.com/svgjs"><svg id="SvgjsSvg1000" data-name="Layer 1" xmlns="http://www.w3.org/2000/svg" viewBox="-61.37 0 313.47 313.47"><defs><style>.cls-1{fill:#414042;}</style></defs><path class="cls-1" d="M120.28,280.47H74.37q1.56,5.52,2.74,9.76,2,7,3.61,11.62t2.7,7.22a23,23,0,0,0,2.26,4.4H132.9v-2.12a135.38,135.38,0,0,1-6.77-13.9A153.32,153.32,0,0,1,120.28,280.47Z"></path><path class="cls-1" d="M113.82,117.69l0,108.92A22.19,22.19,0,0,1,91.9,249H61.2a22.19,22.19,0,0,1-22-22.42v-129a22.19,22.19,0,0,1,22-22.42H71.66V38.25H50C22.39,38.25,0,61.89,0,91V234.35c0,29.15,22.39,52.79,50,52.79h51.14c27.62,0,50-23.64,50-52.79l0-116.66Z"></path><rect class="cls-1" x="113.82" width="37.24" height="112.05"></rect><rect class="cls-1" x="115.65" y="-0.03" width="36.82" height="113.34" transform="translate(190.7 -77.42) rotate(90)"></rect></svg><style>@media (prefers-color-scheme: light) { :root { filter: none; } }
@media (prefers-color-scheme: dark) { :root { filter: invert(100%); } }
</style></svg>